<?xml version="1.0" encoding="utf-8"?>
<!-- Generator: Adobe Illustrator 18.0.0, SVG Export Plug-In . SVG Version: 6.00 Build 0)  -->
<!DOCTYPE svg PUBLIC "-//W3C//DTD SVG 1.1//EN" "http://www.w3.org/Graphics/SVG/1.1/DTD/svg11.dtd">
<svg version="1.1" id="Layer_1" xmlns="http://www.w3.org/2000/svg" xmlns:xlink="http://www.w3.org/1999/xlink" x="0px" y="0px"
	 viewBox="0 0 612 792" enable-background="new 0 0 612 792" xml:space="preserve">
<rect x="26" y="105" width="525" height="579"/>
<g>
	<path fill="#FFFFFF" d="M0,90v612h612V90H0z M517.6,225.4l-71.9,345.9c-1.7,8.2-11.3,11.9-18,7L329.5,507c-6-4.3-14.1-4.1-19.8,0.6
		l-54.4,44.4c-6.3,5.2-15.8,2.3-18.3-5.5l-37.8-121.5l-97.6-36.4c-9.9-3.7-10-17.7-0.1-21.5l400.7-154.6
		C510.7,209.1,519.4,216.5,517.6,225.4z"/>
	<path fill="#FFFFFF" d="M421.8,288L231,405.5c-7.3,4.5-10.8,13.3-8.4,21.6l20.6,72.5c1.5,5.1,8.9,4.6,9.6-0.7l5.4-39.8
		c1-7.5,4.6-14.4,10.1-19.5l157.5-146.4C428.7,290.5,425.2,285.9,421.8,288z"/>
</g>
</svg>
